<?xml version="1.0" encoding="iso-8859-1"?>
<!-- Uploaded to: SVG Repo, www.svgrepo.com, Generator: SVG Repo Mixer Tools -->
<svg fill="#000000" height="800px" width="800px" version="1.1" id="Layer_1" xmlns="http://www.w3.org/2000/svg" xmlns:xlink="http://www.w3.org/1999/xlink" 
	 viewBox="0 0 512 512" xml:space="preserve">
<g>
	<g>
		<path d="M407.403,179.2l33.101-33.101c10.001-10.001,10.001-26.206,0-36.207l-25.6-25.6c-5.009-4.992-11.554-7.492-18.108-7.492
			c-6.554,0-13.107,2.5-18.099,7.501l-33.101,33.092l-33.101-33.101c-4.796-4.796-11.307-7.492-18.099-7.492h-25.6V25.6
			c0-14.14-11.46-25.6-25.6-25.6h-102.4c-14.14,0-25.6,11.46-25.6,25.6v51.2h-25.6c-14.14,0-25.6,11.46-25.6,25.6v384
			c0,14.14,11.46,25.6,25.6,25.6h332.8c14.14,0,25.6-11.46,25.6-25.6v-256c0-6.793-2.697-13.303-7.501-18.099L407.403,179.2z
			 M396.796,102.4l25.6,25.6l-33.101,33.101l-25.6-25.6L396.796,102.4z M140.796,25.6h102.4v51.2h-102.4V25.6z M422.396,486.4
			h-332.8v-384h204.8l128,128V486.4z"/>
	</g>
</g>
<g>
	<g>
		<path d="M378.296,424.55l-58.3-38.869V250.121l34.85-36.48c4.898-5.112,4.702-13.21-0.401-18.091
			c-5.154-4.89-13.252-4.676-18.099,0.41L303.45,230.4h-90.505l-61.824-84.361c-4.198-5.734-12.177-6.946-17.903-2.765
			c-5.7,4.173-6.929,12.186-2.748,17.886l61.525,83.959v140.57l-58.3,38.869c-5.871,3.925-7.475,11.861-3.55,17.749
			c2.475,3.703,6.528,5.7,10.65,5.7c2.449,0,4.924-0.7,7.1-2.15L202.27,409.6h107.452l54.374,36.25c2.176,1.451,4.651,2.15,7.1,2.15
			c4.122,0,8.175-1.997,10.65-5.7C385.771,436.412,384.166,428.476,378.296,424.55z M294.396,384h-76.8V256h76.8V384z"/>
	</g>
</g>
</svg>