<?xml version="1.0" encoding="utf-8"?><!-- Uploaded to: SVG Repo, www.svgrepo.com, Generator: SVG Repo Mixer Tools -->
<svg width="800px" height="800px" viewBox="0 0 24 24" id="Layer_1" data-name="Layer 1" xmlns="http://www.w3.org/2000/svg"><defs><style>.cls-1{fill:none;stroke:#020202;stroke-miterlimit:10;stroke-width:1.91px;}</style></defs><polygon class="cls-1" points="6.26 3.37 3.39 3.37 3.39 18.67 12.96 18.67 12.96 3.37 10.09 3.37 10.09 1.46 6.26 1.46 6.26 3.37"/><rect class="cls-1" x="1.48" y="18.67" width="13.39" height="3.83"/><polygon class="cls-1" points="8.17 11.02 7.46 11.98 8.17 11.98 8.17 11.02"/><polygon class="cls-1" points="8.17 12.94 8.89 11.98 8.17 11.98 8.17 12.94"/><path class="cls-1" d="M19.65,3.37h1.91a0,0,0,0,1,0,0V9.11a0,0,0,0,1,0,0H19.65A1.91,1.91,0,0,1,17.74,7.2V5.28A1.91,1.91,0,0,1,19.65,3.37Z" transform="translate(13.41 25.89) rotate(-90)"/><line class="cls-1" x1="17.74" y1="0.5" x2="17.74" y2="4.33"/><line class="cls-1" x1="21.57" y1="0.5" x2="21.57" y2="4.33"/><path class="cls-1" d="M19.65,8.15v9.57a2.87,2.87,0,0,1-2.87,2.87H14.87"/></svg>